<mxfile host="app.diagrams.net" modified="2023-12-05T19:27:12.779Z" agent="Mozilla/5.0 (Windows NT 10.0; Win64; x64) AppleWebKit/537.36 (KHTML, like Gecko) Chrome/119.0.0.0 Safari/537.36 OPR/105.0.0.0 (Edition Yx 05)" version="22.1.5" etag="TZPA9sWYQvH0nMAx9U2M" type="github">
  <diagram name="Страница — 1" id="5iXapvdDTKxh6Ph4uESu">
    <mxGraphModel>
      <root>
        <mxCell id="0" />
        <mxCell id="1" parent="0" />
      </root>
    </mxGraphModel>
  </diagram>
</mxfile>
